<svg width="181" height="78" viewBox="0 0 181 78" fill="none" xmlns="http://www.w3.org/2000/svg">
<path fill-rule="evenodd" clip-rule="evenodd" d="M3 45.2218H5.30762V33.4769H3V33.0019H11.2815C13.0468 33.0019 15.1516 33.0692 16.7794 33.6808C17.8659 34.1558 18.4765 35.174 18.4765 36.1249C18.4765 37.0759 17.8669 37.6182 16.9833 38.2297C16.5083 38.5691 16.2371 38.6364 15.49 38.8403C16.5083 38.9758 17.1871 39.1797 18.1371 39.7229C19.1553 40.4008 19.563 41.3537 19.563 42.3027C19.563 43.3882 18.8159 44.4074 17.4582 44.8824C15.4218 45.6295 13.0459 45.6978 10.8728 45.6978H3V45.2218ZM9.24501 45.2218H10.9421C12.367 45.2218 13.5218 44.9497 14.4045 44.6766C15.1516 44.2709 15.8987 43.5911 15.8987 42.3007C15.8987 40.8075 15.491 39.7902 13.8612 39.246C13.0468 39.0431 9.31329 39.1104 9.24599 39.1104L9.24501 45.2218ZM9.24501 38.5681C11.0104 38.5681 12.9103 38.6354 13.6574 38.3643C14.7439 37.8893 15.1516 37.4134 15.1516 36.0557C15.0833 34.9019 14.6756 34.2904 13.9968 33.9509C13.1834 33.5442 11.893 33.476 10.5354 33.476H9.24501V38.5681ZM69.7972 45.2218H72.1048V33.4769H69.7972V33.0019H78.0787C79.844 33.0019 81.9478 33.0692 83.5776 33.6808C84.7314 34.1558 85.2746 35.174 85.2746 36.1249C85.2746 37.0759 84.7314 37.6182 83.7814 38.2297C83.3064 38.5691 83.0343 38.6364 82.2882 38.8403C83.3064 38.9758 83.9852 39.1797 85.0035 39.7229C85.9544 40.4008 86.3611 41.3537 86.3611 42.3027C86.3611 43.3882 85.614 44.4074 84.3247 44.8824C82.2892 45.6295 79.845 45.6978 77.672 45.6978H69.7981L69.7972 45.2218ZM76.1105 45.2218H77.7393C79.2325 45.2218 80.319 44.9497 81.2017 44.6766C82.0161 44.2709 82.6949 43.5911 82.6949 42.3007C82.6949 40.8075 82.3555 39.7902 80.6584 39.246C79.844 39.0431 76.1105 39.1104 76.1105 39.1104V45.2218ZM76.1105 38.5681C77.8758 38.5681 79.7084 38.6354 80.4555 38.3643C81.5411 37.8893 81.9488 37.4134 81.9488 36.0557C81.9488 34.9019 81.4738 34.2904 80.7949 33.9509C79.9806 33.5442 78.6902 33.476 77.4008 33.476H76.1114L76.1105 38.5681ZM25.9445 42.4363V33.476H23.2965V33.001H32.054V33.476H29.4743V42.369C29.4743 43.2507 29.881 43.7939 30.6281 44.3372C31.3079 44.9487 32.1896 45.2208 33.8866 45.2208C35.8548 45.2208 37.2808 44.8132 38.0952 44.0661C38.9778 43.3863 39.3845 42.5036 39.3163 41.6219V33.475H36.8048V33H42.9143V33.475H40.3345V41.6882C40.3345 42.9113 39.7913 44.0661 38.6374 44.8122C37.4163 45.5593 36.0577 45.967 33.8184 45.967C31.7136 45.967 29.2694 45.6948 27.9128 45.0833C26.6234 44.5401 25.9445 43.6584 25.9445 42.5036V42.4363ZM49.0929 45.2218V33.4769H46.5132V33.0019H56.2879C58.3917 33.0692 59.4782 33.0019 60.9714 33.5452C61.9897 33.9519 62.6685 34.7673 62.6685 35.9894C62.6685 38.4335 60.4282 38.7047 58.8677 39.0441C60.2253 39.1114 60.9724 39.3835 61.8541 39.7229C62.7368 40.1969 63.1435 40.944 63.3473 41.42C63.5512 42.0978 63.4829 42.9132 63.4829 43.592C63.6185 44.8151 64.23 45.3584 65.3838 45.2228C65.7232 45.1545 65.9271 45.0189 66.1982 44.8151L66.5386 45.3584C65.8855 45.8163 65.0934 46.0325 64.2983 45.9699C63.0079 45.9699 61.9907 45.766 61.1753 45.2901C60.3609 44.8161 59.8859 44.1353 59.6821 43.1853C59.5465 42.3719 59.6148 41.6248 59.3427 40.8094C58.8677 39.5883 57.1696 39.3162 56.0841 39.3162H52.9611V45.2238H55.6091V45.6978H46.3776V45.2238H49.0929V45.2218ZM52.9621 38.7037H56.3562C57.986 38.7037 59.0032 38.0249 59.0032 35.9884C59.0032 34.3596 57.6456 33.4769 56.2206 33.4769H52.9611L52.9621 38.7037ZM138.836 45.2218V33.4769H136.256V33.0019H146.03C148.134 33.0692 149.22 33.0019 150.645 33.5452C151.73 33.9519 152.411 34.7673 152.411 35.9894C152.411 38.4335 150.171 38.7047 148.542 39.0441C149.967 39.1114 150.714 39.3835 151.529 39.7229C152.478 40.1969 152.885 40.944 153.022 41.42C153.292 42.0978 153.224 42.9132 153.224 43.592C153.292 44.8151 153.971 45.3584 155.125 45.2228C155.464 45.1545 155.668 45.0189 155.872 44.8151L156.211 45.3584C155.602 45.8324 154.786 46.0362 153.971 45.9699C152.75 45.9699 151.73 45.766 150.917 45.2901C150.102 44.8161 149.558 44.1353 149.424 43.1853C149.286 42.3719 149.356 41.6248 149.016 40.8094C148.608 39.5883 146.911 39.3162 145.757 39.3162H142.703V45.2238H145.351V45.6978H136.117V45.2238H138.836V45.2218ZM142.705 38.7037H146.031C147.659 38.7037 148.745 38.0249 148.745 35.9884C148.745 34.3596 147.388 33.4769 145.895 33.4769H142.705V38.7037ZM115.687 45.2218V33.4769H113.108V33.0019H122.881C125.055 33.0692 126.072 33.0019 127.566 33.5452C128.585 33.9519 129.332 34.7673 129.332 35.9894C129.332 38.4335 127.092 38.7047 125.461 39.0441C126.82 39.1114 127.566 39.3835 128.447 39.7229C129.331 40.1969 129.737 40.944 129.941 41.42C130.213 42.0978 130.078 42.9132 130.078 43.592C130.214 44.8151 130.892 45.3584 131.977 45.2228C132.319 45.1545 132.52 45.0189 132.793 44.8151L133.132 45.3584C132.52 45.8324 131.639 46.0362 130.892 45.9699C129.602 45.9699 128.585 45.766 127.77 45.2901C126.954 44.8161 126.48 44.1353 126.276 43.1853C126.141 42.3719 126.208 41.6248 125.937 40.8094C125.461 39.5883 123.763 39.3162 122.677 39.3162H119.555V45.2238H122.27V45.6978H112.97V45.2238H115.687V45.2218ZM119.555 38.7037H122.95C124.578 38.7037 125.598 38.0249 125.598 35.9884C125.598 34.3596 124.239 33.4769 122.814 33.4769H119.554V38.7037H119.555ZM90.7735 45.2218H93.3542V33.4769H90.7735V33.0019H106.862V36.8038H106.252C105.98 35.7855 105.301 34.4952 104.486 33.9519C103.942 33.6125 103.061 33.4769 101.567 33.4769H97.2224V38.8403C98.2416 38.8403 99.5983 38.9076 100.48 38.5008C101.16 38.1614 101.635 37.4143 101.771 36.5999H102.449V41.6902H101.771C101.634 40.7412 101.091 40.1296 100.413 39.7912C99.7348 39.5191 98.4425 39.5191 97.2224 39.5191V45.2228H102.111C104.214 45.2228 104.961 44.9507 105.776 44.4757C106.523 43.9305 107.269 42.5748 107.473 41.3537H108.016V45.6968H90.7735V45.2218ZM162.594 45.2218H165.58V39.7219L159.606 33.4769H157.096V33.0019H166.869V33.4769H163.883L168.84 39.0441L173.998 33.4769H170.537V33.0019H177.798V33.4769H175.084L169.382 39.7219V45.2218H172.368V45.6958H162.593L162.594 45.2218Z" fill="#808080"/>
</svg>
