<svg width="76" height="20" viewBox="0 0 76 20" fill="none" xmlns="http://www.w3.org/2000/svg">
<path d="M0.675563 20V0.559999H5.42756C7.07556 0.559999 8.35556 0.775999 9.26756 1.208C10.1956 1.624 10.8516 2.288 11.2356 3.2C11.6196 4.096 11.8116 5.248 11.8116 6.656V13.736C11.8116 15.176 11.6196 16.36 11.2356 17.288C10.8516 18.216 10.2036 18.904 9.29156 19.352C8.39556 19.784 7.13956 20 5.52356 20H0.675563ZM4.63556 17.24H5.47556C6.21156 17.24 6.73156 17.128 7.03556 16.904C7.35556 16.664 7.55556 16.32 7.63556 15.872C7.71556 15.408 7.75556 14.84 7.75556 14.168V6.152C7.75556 5.48 7.69956 4.944 7.58756 4.544C7.49156 4.128 7.28356 3.824 6.96356 3.632C6.65956 3.44 6.15556 3.344 5.45156 3.344H4.63556V17.24ZM17.559 20L21.327 0.559999H25.719L29.463 20H25.791L25.095 15.728H22.023L21.279 20H17.559ZM22.383 13.304H24.711L23.535 5.456L22.383 13.304ZM37.7865 20L34.0905 0.559999H37.5225L39.8265 14L41.9865 0.559999H45.5625L41.8665 20H37.7865ZM51.8856 20V0.559999H60.3576V3.296H55.8456V8.456H59.3256V11.216H55.8456V17.312H60.4056V20H51.8856ZM66.729 20V0.559999H75.201V3.296H70.689V8.456H74.169V11.216H70.689V17.312H75.249V20H66.729Z" fill="url(#paint0_linear_3_883)"/>
<defs>
<linearGradient id="paint0_linear_3_883" x1="-1" y1="9" x2="74.4213" y2="16.7403" gradientUnits="userSpaceOnUse">
<stop stop-color="#A507EF"/>
<stop offset="1" stop-color="#E31657"/>
</linearGradient>
</defs>
</svg>
