<svg width="21" height="20" viewBox="0 0 21 20" fill="none" xmlns="http://www.w3.org/2000/svg">
<path fill-rule="evenodd" clip-rule="evenodd" d="M9.21524 2.27598C9.74882 2.5462 10.1832 2.86249 10.5001 3.12841C10.8169 2.86249 11.2513 2.54621 11.7848 2.27598C12.9939 1.66361 14.7341 1.28486 16.6911 2.27597C17.9412 2.90908 18.7869 3.86704 19.2474 5.03012C19.7017 6.17757 19.7634 7.4766 19.5447 8.79457C19.1721 11.0401 17.6374 13.0438 16.0611 14.5876C14.4651 16.1507 12.7152 17.3495 11.7283 17.9745C10.9729 18.453 10.0272 18.453 9.27183 17.9745C8.28491 17.3495 6.53497 16.1507 4.93899 14.5876C3.36269 13.0438 1.82789 11.0401 1.45531 8.79457C1.23662 7.4766 1.29835 6.17757 1.75265 5.03012C2.21315 3.86704 3.05878 2.90908 4.30887 2.27597C6.26587 1.28486 8.0061 1.66361 9.21524 2.27598ZM9.86517 4.82124C10.0235 5.00746 10.2556 5.11481 10.5001 5.11481C10.7441 5.11481 10.9759 5.00782 11.1342 4.8222C11.1343 4.82199 11.1345 4.82178 11.1347 4.82156C11.1349 4.82131 11.1351 4.82106 11.1353 4.82081L11.148 4.80661C11.161 4.79222 11.1827 4.76852 11.2129 4.73727C11.2734 4.67464 11.3669 4.58255 11.49 4.47484C11.7381 4.25781 12.0962 3.98653 12.5379 3.76283C13.4054 3.32348 14.5724 3.07118 15.9381 3.76283C16.8298 4.21441 17.3892 4.8643 17.6977 5.64366C18.0125 6.43866 18.0839 7.41667 17.9005 8.52176C17.616 10.2366 16.3932 11.9294 14.8949 13.3969C13.4163 14.8451 11.7746 15.9724 10.8365 16.5665C10.6256 16.7001 10.3745 16.7001 10.1636 16.5665C9.22549 15.9724 7.58383 14.8451 6.10518 13.3969C4.60686 11.9294 3.38402 10.2366 3.09949 8.52176C2.91613 7.41667 2.98752 6.43866 3.30228 5.64366C3.61085 4.8643 4.17023 4.21441 5.06189 3.76283C6.42758 3.07118 7.5947 3.32347 8.46223 3.76283C8.90393 3.98653 9.262 4.25782 9.51011 4.47486C9.63323 4.58256 9.72671 4.67465 9.78723 4.73729C9.81742 4.76853 9.8392 4.79224 9.85217 4.80663L9.86517 4.82124Z" fill="#101928"/>
</svg>
