<svg width="24" height="24" viewBox="0 0 24 24" fill="none" xmlns="http://www.w3.org/2000/svg">
<path d="M12 1.125C13.4281 1.125 14.8423 1.40629 16.1617 1.95281C17.4811 2.49933 18.6799 3.30038 19.6898 4.31021C20.6996 5.32005 21.5007 6.5189 22.0472 7.83832C22.5937 9.15774 22.875 10.5719 22.875 12C22.875 13.4281 22.5937 14.8423 22.0472 16.1617C21.5007 17.4811 20.6996 18.68 19.6898 19.6898C18.6799 20.6996 17.4811 21.5007 16.1617 22.0472C14.8423 22.5937 13.4281 22.875 12 22.875C10.5719 22.875 9.15773 22.5937 7.83831 22.0472C6.5189 21.5007 5.32005 20.6996 4.31021 19.6898C3.30037 18.6799 2.49933 17.4811 1.95281 16.1617C1.40629 14.8423 1.125 13.4281 1.125 12C1.125 10.5719 1.40629 9.15773 1.95281 7.83831C2.49933 6.5189 3.30038 5.32005 4.31022 4.31021C5.32006 3.30037 6.51891 2.49933 7.83832 1.95281C9.15774 1.40629 10.5719 1.125 12 1.125L12 1.125Z" stroke="#F2F4F7" stroke-width="2" stroke-linecap="round" stroke-linejoin="round"/>
</svg>
