<svg width="21" height="20" viewBox="0 0 21 20" fill="none" xmlns="http://www.w3.org/2000/svg">
<path fill-rule="evenodd" clip-rule="evenodd" d="M10.5 1.66663C8.19885 1.66663 6.33337 3.53211 6.33337 5.83329C6.33337 8.13448 8.19885 9.99996 10.5 9.99996C12.8012 9.99996 14.6667 8.13448 14.6667 5.83329C14.6667 3.53211 12.8012 1.66663 10.5 1.66663ZM8.00004 5.83329C8.00004 4.45258 9.11933 3.33329 10.5 3.33329C11.8808 3.33329 13 4.45258 13 5.83329C13 7.214 11.8808 8.33329 10.5 8.33329C9.11933 8.33329 8.00004 7.214 8.00004 5.83329Z" fill="#101928"/>
<path fill-rule="evenodd" clip-rule="evenodd" d="M10.5 19.1666C9.21629 19.1666 7.35822 18.8751 5.9629 18.2644C5.2779 17.9646 4.58125 17.5356 4.1765 16.9145C3.96364 16.5878 3.82907 16.203 3.83348 15.7735C3.83785 15.3478 3.97791 14.94 4.2133 14.5606C5.35447 12.7213 7.68903 10.8333 10.5 10.8333C13.311 10.8333 15.6456 12.7213 16.7868 14.5606C17.0222 14.94 17.1622 15.3478 17.1666 15.7735C17.171 16.2031 17.0364 16.5878 16.8236 16.9145C16.4188 17.5356 15.7222 17.9646 15.0372 18.2644C13.6419 18.8751 11.7838 19.1666 10.5 19.1666ZM5.62953 15.4393C5.51981 15.6162 5.50068 15.7297 5.50006 15.7906C5.49947 15.8475 5.51409 15.9144 5.57284 16.0045C5.71132 16.217 6.0476 16.4822 6.63114 16.7376C7.77291 17.2373 9.3944 17.5 10.5 17.5C11.6057 17.5 13.2272 17.2373 14.3689 16.7376C14.9525 16.4822 15.2888 16.217 15.4272 16.0045C15.486 15.9144 15.5006 15.8475 15.5 15.7906C15.4994 15.7297 15.4803 15.6162 15.3705 15.4393C14.4354 13.9321 12.5703 12.5 10.5 12.5C8.42976 12.5 6.56466 13.9321 5.62953 15.4393Z" fill="#101928"/>
</svg>
